<?xml version="1.0" standalone="no"?>
<!DOCTYPE svg PUBLIC "-//W3C//DTD SVG 20010904//EN"
 "http://www.w3.org/TR/2001/REC-SVG-20010904/DTD/svg10.dtd">
<svg version="1.0" xmlns="http://www.w3.org/2000/svg"
 width="76.000000pt" height="76.000000pt" viewBox="0 0 76.000000 76.000000"
 preserveAspectRatio="xMidYMid meet">
<metadata>
Created by potrace 1.11, written by Peter Selinger 2001-2013
</metadata>
<g transform="translate(0.000000,76.000000) scale(0.100000,-0.100000)"
fill="#000000" stroke="none">
<path d="M85 700 c3 -5 -1 -10 -11 -10 -21 0 -44 -30 -36 -48 4 -11 6 -11 14
0 7 9 8 7 5 -10 -3 -12 -1 -19 4 -16 6 3 8 -25 6 -70 -1 -42 1 -76 6 -76 4 0
5 -6 0 -12 -10 -18 -4 -142 7 -146 6 -2 10 -11 10 -20 0 -13 2 -14 9 -4 6 11
11 10 25 -3 19 -19 21 -29 4 -19 -10 6 -10 5 -1 -7 10 -12 10 -18 0 -29 -8 -9
-8 -11 0 -6 6 3 14 -2 18 -13 3 -10 19 -24 35 -31 17 -7 30 -17 30 -22 0 -5 5
-6 10 -3 5 3 10 1 10 -5 0 -6 4 -9 9 -5 5 3 17 -2 25 -11 9 -8 16 -13 16 -10
0 3 9 -2 20 -12 12 -9 25 -17 30 -17 5 0 15 -8 22 -18 13 -17 73 -33 63 -17
-5 8 24 24 38 22 4 -1 7 2 7 7 0 5 16 18 36 30 19 12 32 15 28 9 -4 -7 3 -3
14 9 12 12 30 24 42 28 11 3 20 11 20 16 0 6 5 7 10 4 6 -3 10 -1 10 5 0 6 4
9 9 6 9 -6 26 22 23 36 -1 5 3 8 9 8 5 0 7 5 4 10 -4 6 -11 8 -16 5 -21 -14 5
25 28 40 14 10 23 13 20 8 -4 -5 0 -10 8 -10 8 0 13 5 12 11 -1 6 3 10 10 9 8
-2 9 6 3 27 -5 18 -5 30 2 32 16 6 -21 38 -43 38 -25 0 -40 38 -26 65 9 17 8
18 -5 7 -13 -10 -15 -9 -11 12 4 20 -1 27 -31 41 -21 10 -33 22 -29 29 3 6 3
8 -2 4 -4 -4 -20 -1 -36 8 -16 8 -31 13 -33 12 -3 -2 -12 6 -20 17 -8 11 -18
17 -21 13 -4 -4 -16 3 -26 15 -10 12 -18 18 -19 13 0 -5 -8 -1 -19 8 -17 16
-20 16 -35 1 -9 -9 -20 -14 -24 -11 -5 3 -16 -4 -25 -15 -10 -11 -22 -17 -27
-14 -6 3 -10 -1 -10 -9 0 -10 -7 -13 -20 -11 -11 2 -18 0 -15 -6 4 -5 -1 -9
-9 -9 -9 0 -16 -5 -16 -11 0 -5 -5 -7 -10 -4 -6 3 -13 -1 -16 -9 -3 -9 -10
-14 -14 -11 -5 3 -20 -5 -33 -19 -18 -18 -23 -33 -22 -60 2 -20 -2 -36 -7 -36
-6 0 -8 -7 -4 -15 10 -26 -3 -16 -19 14 -9 19 -11 32 -5 36 7 4 7 13 0 24 -6
12 -5 22 2 29 9 9 9 12 0 12 -8 0 -9 7 -1 27 7 19 6 28 -2 34 -9 5 -8 12 5 24
21 22 9 95 -16 95 -5 0 -6 -4 -3 -10z m310 -107 c-2 -10 -4 -22 -5 -28 -1 -5
-2 -12 0 -15 8 -23 7 -59 -2 -54 -6 4 -9 3 -6 -2 12 -18 18 -85 8 -79 -5 3 -8
0 -5 -7 10 -26 12 -78 4 -78 -5 0 -9 -5 -9 -11 0 -5 4 -8 9 -5 8 5 8 -34 1
-69 -1 -5 -2 -12 0 -15 7 -19 7 -59 0 -55 -5 3 -5 -8 0 -25 9 -32 -6 -53 -21
-29 -5 8 -9 10 -9 4 0 -5 -7 -1 -15 9 -8 11 -15 17 -15 13 0 -4 -18 3 -40 14
-22 12 -40 26 -40 31 0 6 -7 8 -15 4 -8 -3 -15 -1 -15 4 0 5 -10 12 -23 15
-18 5 -23 13 -22 38 0 18 -4 35 -10 39 -6 5 -5 8 4 8 11 0 11 3 1 15 -7 8 -8
15 -3 15 4 0 6 29 3 65 -3 41 -2 65 5 66 5 0 5 3 -2 6 -19 7 13 36 75 68 28
15 52 31 52 36 0 5 3 9 8 8 15 -2 52 14 52 22 0 5 9 9 19 9 14 0 19 -6 16 -17z
m173 -247 c3 -3 -1 -12 -8 -21 -10 -12 -10 -15 1 -16 10 0 11 -2 1 -6 -6 -2
-10 -8 -7 -12 2 -5 -13 -16 -35 -26 -22 -10 -40 -22 -40 -28 0 -5 -6 -5 -14 2
-28 23 -2 85 39 95 14 4 23 11 20 16 -6 9 33 5 43 -4z"/>
<path d="M215 341 c0 -33 27 -71 50 -71 4 0 18 -9 32 -20 28 -22 43 -19 38 8
-2 9 -4 26 -4 38 -1 13 -16 29 -43 45 -73 41 -74 41 -73 0z"/>
</g>
</svg>
